<mxfile host="app.diagrams.net" modified="2021-02-26T09:29:57.577Z" agent="5.0 (Windows NT 10.0; Win64; x64) AppleWebKit/537.36 (KHTML, like Gecko) Chrome/88.0.4324.182 Safari/537.36" etag="aA-FYLaEG5y-xAbxlWAO" version="14.4.3" type="github">
  <diagram id="_LM2_4RiInQOaNpVVQQp" name="Page-1">
    <mxGraphModel dx="2601" dy="1406" grid="1" gridSize="10" guides="1" tooltips="1" connect="1" arrows="1" fold="1" page="1" pageScale="1" pageWidth="413" pageHeight="291" math="0" shadow="0">
      <root>
        <mxCell id="0" />
        <mxCell id="1" parent="0" />
        <mxCell id="ouk6PVNN6z9lbslJiqBb-3" value="" style="whiteSpace=wrap;html=1;rounded=0;shadow=0;strokeWidth=8;fontSize=20;align=center;fillColor=#FED217;strokeColor=#FFFFFF;" vertex="1" parent="1">
          <mxGeometry x="1630" y="412" width="1446" height="430" as="geometry" />
        </mxCell>
        <mxCell id="ouk6PVNN6z9lbslJiqBb-5" value="地形仿真" style="ellipse;whiteSpace=wrap;html=1;rounded=0;shadow=0;strokeWidth=6;fontSize=20;align=center;fillColor=#BFB4A9;strokeColor=#FFFFFF;fontColor=#1A1A1A;" vertex="1" parent="1">
          <mxGeometry x="1851" y="524.5" width="115" height="115" as="geometry" />
        </mxCell>
        <mxCell id="ouk6PVNN6z9lbslJiqBb-6" value="&lt;font style=&quot;font-size: 20px&quot;&gt;军事仿真&lt;/font&gt;" style="ellipse;whiteSpace=wrap;html=1;rounded=0;shadow=0;strokeWidth=6;fontSize=14;align=center;fillColor=#397DAA;strokeColor=#FFFFFF;fontColor=#FFFFFF;" vertex="1" parent="1">
          <mxGeometry x="2153.5" y="519" width="115" height="115" as="geometry" />
        </mxCell>
        <mxCell id="ouk6PVNN6z9lbslJiqBb-7" value="" style="whiteSpace=wrap;html=1;rounded=0;shadow=0;strokeWidth=1;fontSize=20;align=center;fontColor=#FFFFFF;fillColor=#FFFFFF;" vertex="1" parent="1">
          <mxGeometry x="1631" y="742" width="1446" height="307" as="geometry" />
        </mxCell>
        <mxCell id="ouk6PVNN6z9lbslJiqBb-13" value="&lt;font style=&quot;font-size: 20px&quot; color=&quot;#ffffff&quot;&gt;海洋环境&lt;/font&gt;" style="ellipse;whiteSpace=wrap;html=1;rounded=0;shadow=0;strokeWidth=6;fontSize=14;align=center;strokeColor=#FFFFFF;fillColor=#009900;" vertex="1" parent="1">
          <mxGeometry x="2463.5" y="524.5" width="115" height="115" as="geometry" />
        </mxCell>
        <mxCell id="ouk6PVNN6z9lbslJiqBb-14" value="&lt;font style=&quot;font-size: 20px&quot;&gt;模型使用&lt;/font&gt;" style="ellipse;whiteSpace=wrap;html=1;rounded=0;shadow=0;strokeWidth=6;fontSize=14;align=center;strokeColor=#FFFFFF;fontColor=#FFFFFF;fillColor=#FF8000;" vertex="1" parent="1">
          <mxGeometry x="2773.5" y="524.5" width="115" height="115" as="geometry" />
        </mxCell>
        <mxCell id="ouk6PVNN6z9lbslJiqBb-18" value="" style="rounded=1;whiteSpace=wrap;html=1;strokeColor=#FFFFFF;fillColor=#97BD71;" vertex="1" parent="1">
          <mxGeometry x="1821.5" y="781.25" width="178" height="80" as="geometry" />
        </mxCell>
        <mxCell id="ouk6PVNN6z9lbslJiqBb-19" value="" style="rounded=1;whiteSpace=wrap;html=1;strokeColor=#FFFFFF;fillColor=#97BD71;" vertex="1" parent="1">
          <mxGeometry x="1819.5" y="931.25" width="178" height="80" as="geometry" />
        </mxCell>
        <mxCell id="ouk6PVNN6z9lbslJiqBb-20" value="" style="rounded=1;whiteSpace=wrap;html=1;strokeColor=#FFFFFF;fillColor=#97BD71;" vertex="1" parent="1">
          <mxGeometry x="2122" y="781.25" width="178" height="80" as="geometry" />
        </mxCell>
        <mxCell id="ouk6PVNN6z9lbslJiqBb-21" value="" style="rounded=1;whiteSpace=wrap;html=1;strokeColor=#FFFFFF;fillColor=#97BD71;" vertex="1" parent="1">
          <mxGeometry x="2122" y="931.25" width="178" height="80" as="geometry" />
        </mxCell>
        <mxCell id="ouk6PVNN6z9lbslJiqBb-22" value="" style="rounded=1;whiteSpace=wrap;html=1;strokeColor=#FFFFFF;fillColor=#97BD71;" vertex="1" parent="1">
          <mxGeometry x="2433" y="779.75" width="178" height="80" as="geometry" />
        </mxCell>
        <mxCell id="ouk6PVNN6z9lbslJiqBb-23" value="" style="rounded=1;whiteSpace=wrap;html=1;strokeColor=#FFFFFF;fillColor=#97BD71;" vertex="1" parent="1">
          <mxGeometry x="2432" y="929.75" width="178" height="80" as="geometry" />
        </mxCell>
        <mxCell id="ouk6PVNN6z9lbslJiqBb-24" value="" style="rounded=1;whiteSpace=wrap;html=1;strokeColor=#FFFFFF;fillColor=#97BD71;" vertex="1" parent="1">
          <mxGeometry x="2747.5" y="779.75" width="178" height="80" as="geometry" />
        </mxCell>
        <mxCell id="ouk6PVNN6z9lbslJiqBb-25" value="" style="rounded=1;whiteSpace=wrap;html=1;strokeColor=#FFFFFF;fillColor=#97BD71;" vertex="1" parent="1">
          <mxGeometry x="2742" y="929.75" width="178" height="80" as="geometry" />
        </mxCell>
        <mxCell id="ouk6PVNN6z9lbslJiqBb-26" value="快速定位" style="text;html=1;strokeColor=none;fillColor=none;align=center;verticalAlign=middle;whiteSpace=wrap;rounded=0;fontSize=30;" vertex="1" parent="1">
          <mxGeometry x="1849.5" y="811.25" width="122" height="20" as="geometry" />
        </mxCell>
        <mxCell id="ouk6PVNN6z9lbslJiqBb-27" value="特效显示" style="text;html=1;strokeColor=none;fillColor=none;align=center;verticalAlign=middle;whiteSpace=wrap;rounded=0;fontSize=30;" vertex="1" parent="1">
          <mxGeometry x="1839.5" y="961.25" width="129" height="20" as="geometry" />
        </mxCell>
        <mxCell id="ouk6PVNN6z9lbslJiqBb-28" value="视图展示" style="text;html=1;strokeColor=none;fillColor=none;align=center;verticalAlign=middle;whiteSpace=wrap;rounded=0;fontSize=30;" vertex="1" parent="1">
          <mxGeometry x="2146.5" y="811.25" width="127" height="20" as="geometry" />
        </mxCell>
        <mxCell id="ouk6PVNN6z9lbslJiqBb-29" value="模型控制" style="text;html=1;strokeColor=none;fillColor=none;align=center;verticalAlign=middle;whiteSpace=wrap;rounded=0;fontSize=30;" vertex="1" parent="1">
          <mxGeometry x="2142" y="961.25" width="124" height="20" as="geometry" />
        </mxCell>
        <mxCell id="ouk6PVNN6z9lbslJiqBb-30" value="场景操作" style="text;html=1;strokeColor=none;fillColor=none;align=center;verticalAlign=middle;whiteSpace=wrap;rounded=0;fontSize=30;" vertex="1" parent="1">
          <mxGeometry x="2463.5" y="809.75" width="122.5" height="20" as="geometry" />
        </mxCell>
        <mxCell id="ouk6PVNN6z9lbslJiqBb-31" value="地形渲染" style="text;html=1;strokeColor=none;fillColor=none;align=center;verticalAlign=middle;whiteSpace=wrap;rounded=0;fontSize=30;" vertex="1" parent="1">
          <mxGeometry x="2453.5" y="959.75" width="128.5" height="20" as="geometry" />
        </mxCell>
        <mxCell id="ouk6PVNN6z9lbslJiqBb-32" value="标绘" style="text;html=1;strokeColor=none;fillColor=none;align=center;verticalAlign=middle;whiteSpace=wrap;rounded=0;fontSize=30;" vertex="1" parent="1">
          <mxGeometry x="2771" y="819.75" width="120" height="10" as="geometry" />
        </mxCell>
        <mxCell id="ouk6PVNN6z9lbslJiqBb-33" value="量算" style="text;html=1;strokeColor=none;fillColor=none;align=center;verticalAlign=middle;whiteSpace=wrap;rounded=0;fontSize=30;" vertex="1" parent="1">
          <mxGeometry x="2768.5" y="959.75" width="120" height="20" as="geometry" />
        </mxCell>
        <mxCell id="ouk6PVNN6z9lbslJiqBb-245" value="......" style="text;html=1;strokeColor=none;fillColor=none;align=center;verticalAlign=middle;whiteSpace=wrap;rounded=0;fontSize=60;" vertex="1" parent="1">
          <mxGeometry x="2929" y="864.75" width="115" height="20" as="geometry" />
        </mxCell>
        <mxCell id="ouk6PVNN6z9lbslJiqBb-491" value="" style="whiteSpace=wrap;html=1;rounded=0;shadow=0;strokeWidth=8;fontSize=20;align=center;strokeColor=none;fillColor=#78C728;" vertex="1" parent="1">
          <mxGeometry x="1631" y="1144.75" width="1446" height="149" as="geometry" />
        </mxCell>
        <mxCell id="ouk6PVNN6z9lbslJiqBb-494" value="" style="rounded=1;whiteSpace=wrap;html=1;strokeColor=#FFFFFF;fontSize=80;fontColor=#388C8C;fillColor=#51C98D;" vertex="1" parent="1">
          <mxGeometry x="1651.5" y="1180" width="170" height="101.5" as="geometry" />
        </mxCell>
        <mxCell id="ouk6PVNN6z9lbslJiqBb-495" value="" style="rounded=0;whiteSpace=wrap;html=1;fontSize=80;fontColor=#388C8C;fillColor=#E6E6E6;" vertex="1" parent="1">
          <mxGeometry x="1270" y="419" width="360" height="2601" as="geometry" />
        </mxCell>
        <mxCell id="ouk6PVNN6z9lbslJiqBb-496" value="" style="endArrow=none;html=1;fontSize=80;fontColor=#388C8C;" edge="1" parent="1">
          <mxGeometry width="50" height="50" relative="1" as="geometry">
            <mxPoint x="1633" y="741" as="sourcePoint" />
            <mxPoint x="1267" y="741" as="targetPoint" />
          </mxGeometry>
        </mxCell>
        <mxCell id="ouk6PVNN6z9lbslJiqBb-497" value="" style="endArrow=none;html=1;fontSize=80;fontColor=#388C8C;" edge="1" parent="1">
          <mxGeometry width="50" height="50" relative="1" as="geometry">
            <mxPoint x="1630" y="1048" as="sourcePoint" />
            <mxPoint x="1272" y="1048" as="targetPoint" />
          </mxGeometry>
        </mxCell>
        <mxCell id="ouk6PVNN6z9lbslJiqBb-498" value="应用层" style="text;html=1;strokeColor=none;fillColor=none;align=center;verticalAlign=middle;whiteSpace=wrap;rounded=0;fontSize=80;fontColor=#388C8C;" vertex="1" parent="1">
          <mxGeometry x="1100" y="560" width="700" height="20" as="geometry" />
        </mxCell>
        <mxCell id="ouk6PVNN6z9lbslJiqBb-499" value="功能层" style="text;html=1;strokeColor=none;fillColor=none;align=center;verticalAlign=middle;whiteSpace=wrap;rounded=0;fontSize=80;fontColor=#388C8C;" vertex="1" parent="1">
          <mxGeometry x="1100" y="859.75" width="700" height="65" as="geometry" />
        </mxCell>
        <mxCell id="ouk6PVNN6z9lbslJiqBb-500" value="业务逻辑层" style="text;html=1;strokeColor=none;fillColor=none;align=center;verticalAlign=middle;whiteSpace=wrap;rounded=0;fontSize=70;fontColor=#388C8C;" vertex="1" parent="1">
          <mxGeometry x="1100" y="1820" width="700" height="20" as="geometry" />
        </mxCell>
        <mxCell id="ouk6PVNN6z9lbslJiqBb-501" value="通知服务" style="text;html=1;strokeColor=none;fillColor=none;align=center;verticalAlign=middle;whiteSpace=wrap;rounded=0;fontSize=30;" vertex="1" parent="1">
          <mxGeometry x="1672" y="1223.75" width="129" height="20" as="geometry" />
        </mxCell>
        <mxCell id="ouk6PVNN6z9lbslJiqBb-503" value="" style="rounded=1;whiteSpace=wrap;html=1;strokeColor=#FFFFFF;fillColor=#9C9C9C;fontSize=80;fontColor=#388C8C;" vertex="1" parent="1">
          <mxGeometry x="1920" y="1183" width="170" height="101.5" as="geometry" />
        </mxCell>
        <mxCell id="ouk6PVNN6z9lbslJiqBb-504" value="消息传递" style="text;html=1;strokeColor=none;fillColor=none;align=center;verticalAlign=middle;whiteSpace=wrap;rounded=0;fontSize=30;" vertex="1" parent="1">
          <mxGeometry x="1940.5" y="1226.75" width="129" height="20" as="geometry" />
        </mxCell>
        <mxCell id="ouk6PVNN6z9lbslJiqBb-505" value="" style="rounded=1;whiteSpace=wrap;html=1;strokeColor=#FFFFFF;fillColor=#9C9C9C;fontSize=80;fontColor=#388C8C;" vertex="1" parent="1">
          <mxGeometry x="2146.5" y="1180" width="170" height="101.5" as="geometry" />
        </mxCell>
        <mxCell id="ouk6PVNN6z9lbslJiqBb-506" value="命令传递" style="text;html=1;strokeColor=none;fillColor=none;align=center;verticalAlign=middle;whiteSpace=wrap;rounded=0;fontSize=30;" vertex="1" parent="1">
          <mxGeometry x="2167" y="1223.75" width="129" height="20" as="geometry" />
        </mxCell>
        <mxCell id="ouk6PVNN6z9lbslJiqBb-507" value="" style="rounded=1;whiteSpace=wrap;html=1;strokeColor=#FFFFFF;fillColor=#9C9C9C;fontSize=80;fontColor=#388C8C;" vertex="1" parent="1">
          <mxGeometry x="2370" y="1183" width="170" height="101.5" as="geometry" />
        </mxCell>
        <mxCell id="ouk6PVNN6z9lbslJiqBb-508" value="接口信息传递" style="text;html=1;strokeColor=none;fillColor=none;align=center;verticalAlign=middle;whiteSpace=wrap;rounded=0;fontSize=30;" vertex="1" parent="1">
          <mxGeometry x="2390.5" y="1226.75" width="129" height="20" as="geometry" />
        </mxCell>
        <mxCell id="ouk6PVNN6z9lbslJiqBb-509" value="" style="rounded=1;whiteSpace=wrap;html=1;strokeColor=#FFFFFF;fillColor=#9C9C9C;fontSize=80;fontColor=#388C8C;" vertex="1" parent="1">
          <mxGeometry x="2586" y="1183" width="170" height="101.5" as="geometry" />
        </mxCell>
        <mxCell id="ouk6PVNN6z9lbslJiqBb-510" value="控制信息传递" style="text;html=1;strokeColor=none;fillColor=none;align=center;verticalAlign=middle;whiteSpace=wrap;rounded=0;fontSize=30;" vertex="1" parent="1">
          <mxGeometry x="2606.5" y="1226.75" width="129" height="20" as="geometry" />
        </mxCell>
        <mxCell id="ouk6PVNN6z9lbslJiqBb-511" value="" style="rounded=1;whiteSpace=wrap;html=1;strokeColor=#FFFFFF;fillColor=#9C9C9C;fontSize=80;fontColor=#388C8C;" vertex="1" parent="1">
          <mxGeometry x="2810" y="1183" width="170" height="101.5" as="geometry" />
        </mxCell>
        <mxCell id="ouk6PVNN6z9lbslJiqBb-512" value="其他消息" style="text;html=1;strokeColor=none;fillColor=none;align=center;verticalAlign=middle;whiteSpace=wrap;rounded=0;fontSize=30;" vertex="1" parent="1">
          <mxGeometry x="2830.5" y="1226.75" width="129" height="20" as="geometry" />
        </mxCell>
        <mxCell id="ouk6PVNN6z9lbslJiqBb-514" value="" style="whiteSpace=wrap;html=1;rounded=0;shadow=0;strokeWidth=8;fontSize=20;align=center;strokeColor=none;fillColor=#78C728;" vertex="1" parent="1">
          <mxGeometry x="1631" y="1387.75" width="1446" height="149" as="geometry" />
        </mxCell>
        <mxCell id="ouk6PVNN6z9lbslJiqBb-515" value="" style="rounded=1;whiteSpace=wrap;html=1;strokeColor=#FFFFFF;fontSize=80;fontColor=#388C8C;fillColor=#51C98D;" vertex="1" parent="1">
          <mxGeometry x="1651.5" y="1423" width="170" height="101.5" as="geometry" />
        </mxCell>
        <mxCell id="ouk6PVNN6z9lbslJiqBb-516" value="注册服务" style="text;html=1;strokeColor=none;fillColor=none;align=center;verticalAlign=middle;whiteSpace=wrap;rounded=0;fontSize=30;" vertex="1" parent="1">
          <mxGeometry x="1672" y="1466.75" width="129" height="20" as="geometry" />
        </mxCell>
        <mxCell id="ouk6PVNN6z9lbslJiqBb-517" value="" style="rounded=1;whiteSpace=wrap;html=1;strokeColor=#FFFFFF;fillColor=#9C9C9C;fontSize=80;fontColor=#388C8C;" vertex="1" parent="1">
          <mxGeometry x="1920" y="1426" width="170" height="101.5" as="geometry" />
        </mxCell>
        <mxCell id="ouk6PVNN6z9lbslJiqBb-518" value="组件注册" style="text;html=1;strokeColor=none;fillColor=none;align=center;verticalAlign=middle;whiteSpace=wrap;rounded=0;fontSize=30;" vertex="1" parent="1">
          <mxGeometry x="1940.5" y="1469.75" width="129" height="20" as="geometry" />
        </mxCell>
        <mxCell id="ouk6PVNN6z9lbslJiqBb-519" value="" style="rounded=1;whiteSpace=wrap;html=1;strokeColor=#FFFFFF;fillColor=#9C9C9C;fontSize=80;fontColor=#388C8C;" vertex="1" parent="1">
          <mxGeometry x="2146.5" y="1423" width="170" height="101.5" as="geometry" />
        </mxCell>
        <mxCell id="ouk6PVNN6z9lbslJiqBb-520" value="接口注册" style="text;html=1;strokeColor=none;fillColor=none;align=center;verticalAlign=middle;whiteSpace=wrap;rounded=0;fontSize=30;" vertex="1" parent="1">
          <mxGeometry x="2167" y="1466.75" width="129" height="20" as="geometry" />
        </mxCell>
        <mxCell id="ouk6PVNN6z9lbslJiqBb-521" value="" style="rounded=1;whiteSpace=wrap;html=1;strokeColor=#FFFFFF;fillColor=#9C9C9C;fontSize=80;fontColor=#388C8C;" vertex="1" parent="1">
          <mxGeometry x="2370" y="1426" width="170" height="101.5" as="geometry" />
        </mxCell>
        <mxCell id="ouk6PVNN6z9lbslJiqBb-522" value="命令注册" style="text;html=1;strokeColor=none;fillColor=none;align=center;verticalAlign=middle;whiteSpace=wrap;rounded=0;fontSize=30;" vertex="1" parent="1">
          <mxGeometry x="2390.5" y="1469.75" width="129" height="20" as="geometry" />
        </mxCell>
        <mxCell id="ouk6PVNN6z9lbslJiqBb-523" value="" style="rounded=1;whiteSpace=wrap;html=1;strokeColor=#FFFFFF;fillColor=#9C9C9C;fontSize=80;fontColor=#388C8C;" vertex="1" parent="1">
          <mxGeometry x="2586" y="1426" width="170" height="101.5" as="geometry" />
        </mxCell>
        <mxCell id="ouk6PVNN6z9lbslJiqBb-524" value="消息注册" style="text;html=1;strokeColor=none;fillColor=none;align=center;verticalAlign=middle;whiteSpace=wrap;rounded=0;fontSize=30;" vertex="1" parent="1">
          <mxGeometry x="2606.5" y="1469.75" width="129" height="20" as="geometry" />
        </mxCell>
        <mxCell id="ouk6PVNN6z9lbslJiqBb-525" value="" style="rounded=1;whiteSpace=wrap;html=1;strokeColor=#FFFFFF;fillColor=#9C9C9C;fontSize=80;fontColor=#388C8C;" vertex="1" parent="1">
          <mxGeometry x="2810" y="1426" width="170" height="101.5" as="geometry" />
        </mxCell>
        <mxCell id="ouk6PVNN6z9lbslJiqBb-526" value="工具注册" style="text;html=1;strokeColor=none;fillColor=none;align=center;verticalAlign=middle;whiteSpace=wrap;rounded=0;fontSize=30;" vertex="1" parent="1">
          <mxGeometry x="2830.5" y="1469.75" width="129" height="20" as="geometry" />
        </mxCell>
        <mxCell id="ouk6PVNN6z9lbslJiqBb-528" value="" style="whiteSpace=wrap;html=1;rounded=0;shadow=0;strokeWidth=8;fontSize=20;align=center;strokeColor=none;fillColor=#78C728;" vertex="1" parent="1">
          <mxGeometry x="1631" y="1623" width="1446" height="149" as="geometry" />
        </mxCell>
        <mxCell id="ouk6PVNN6z9lbslJiqBb-529" value="" style="rounded=1;whiteSpace=wrap;html=1;strokeColor=#FFFFFF;fontSize=80;fontColor=#388C8C;fillColor=#51C98D;" vertex="1" parent="1">
          <mxGeometry x="1651.5" y="1658.25" width="170" height="101.5" as="geometry" />
        </mxCell>
        <mxCell id="ouk6PVNN6z9lbslJiqBb-530" value="组件服务" style="text;html=1;strokeColor=none;fillColor=none;align=center;verticalAlign=middle;whiteSpace=wrap;rounded=0;fontSize=30;" vertex="1" parent="1">
          <mxGeometry x="1672" y="1702" width="129" height="20" as="geometry" />
        </mxCell>
        <mxCell id="ouk6PVNN6z9lbslJiqBb-531" value="" style="rounded=1;whiteSpace=wrap;html=1;strokeColor=#FFFFFF;fillColor=#9C9C9C;fontSize=80;fontColor=#388C8C;" vertex="1" parent="1">
          <mxGeometry x="1920" y="1661.25" width="170" height="101.5" as="geometry" />
        </mxCell>
        <mxCell id="ouk6PVNN6z9lbslJiqBb-532" value="陆地组件" style="text;html=1;strokeColor=none;fillColor=none;align=center;verticalAlign=middle;whiteSpace=wrap;rounded=0;fontSize=30;" vertex="1" parent="1">
          <mxGeometry x="1940.5" y="1705" width="129" height="20" as="geometry" />
        </mxCell>
        <mxCell id="ouk6PVNN6z9lbslJiqBb-533" value="" style="rounded=1;whiteSpace=wrap;html=1;strokeColor=#FFFFFF;fillColor=#9C9C9C;fontSize=80;fontColor=#388C8C;" vertex="1" parent="1">
          <mxGeometry x="2146.5" y="1658.25" width="170" height="101.5" as="geometry" />
        </mxCell>
        <mxCell id="ouk6PVNN6z9lbslJiqBb-534" value="海洋组件" style="text;html=1;strokeColor=none;fillColor=none;align=center;verticalAlign=middle;whiteSpace=wrap;rounded=0;fontSize=30;" vertex="1" parent="1">
          <mxGeometry x="2167" y="1702" width="129" height="20" as="geometry" />
        </mxCell>
        <mxCell id="ouk6PVNN6z9lbslJiqBb-535" value="" style="rounded=1;whiteSpace=wrap;html=1;strokeColor=#FFFFFF;fillColor=#9C9C9C;fontSize=80;fontColor=#388C8C;" vertex="1" parent="1">
          <mxGeometry x="2370" y="1661.25" width="170" height="101.5" as="geometry" />
        </mxCell>
        <mxCell id="ouk6PVNN6z9lbslJiqBb-536" value="天空组件" style="text;html=1;strokeColor=none;fillColor=none;align=center;verticalAlign=middle;whiteSpace=wrap;rounded=0;fontSize=30;" vertex="1" parent="1">
          <mxGeometry x="2390.5" y="1705" width="129" height="20" as="geometry" />
        </mxCell>
        <mxCell id="ouk6PVNN6z9lbslJiqBb-537" value="" style="rounded=1;whiteSpace=wrap;html=1;strokeColor=#FFFFFF;fillColor=#9C9C9C;fontSize=80;fontColor=#388C8C;" vertex="1" parent="1">
          <mxGeometry x="2586" y="1661.25" width="170" height="101.5" as="geometry" />
        </mxCell>
        <mxCell id="ouk6PVNN6z9lbslJiqBb-538" value="工具组件" style="text;html=1;strokeColor=none;fillColor=none;align=center;verticalAlign=middle;whiteSpace=wrap;rounded=0;fontSize=30;" vertex="1" parent="1">
          <mxGeometry x="2606.5" y="1705" width="129" height="20" as="geometry" />
        </mxCell>
        <mxCell id="ouk6PVNN6z9lbslJiqBb-539" value="" style="rounded=1;whiteSpace=wrap;html=1;strokeColor=#FFFFFF;fillColor=#9C9C9C;fontSize=80;fontColor=#388C8C;" vertex="1" parent="1">
          <mxGeometry x="2810" y="1661.25" width="170" height="101.5" as="geometry" />
        </mxCell>
        <mxCell id="ouk6PVNN6z9lbslJiqBb-540" value="其他组件" style="text;html=1;strokeColor=none;fillColor=none;align=center;verticalAlign=middle;whiteSpace=wrap;rounded=0;fontSize=30;" vertex="1" parent="1">
          <mxGeometry x="2830.5" y="1705" width="129" height="20" as="geometry" />
        </mxCell>
        <mxCell id="ouk6PVNN6z9lbslJiqBb-542" value="" style="whiteSpace=wrap;html=1;rounded=0;shadow=0;strokeWidth=8;fontSize=20;align=center;strokeColor=none;fillColor=#78C728;" vertex="1" parent="1">
          <mxGeometry x="1631" y="1871.81" width="1446" height="149" as="geometry" />
        </mxCell>
        <mxCell id="ouk6PVNN6z9lbslJiqBb-543" value="" style="rounded=1;whiteSpace=wrap;html=1;strokeColor=#FFFFFF;fontSize=80;fontColor=#388C8C;fillColor=#51C98D;" vertex="1" parent="1">
          <mxGeometry x="1651.5" y="1907.06" width="170" height="101.5" as="geometry" />
        </mxCell>
        <mxCell id="ouk6PVNN6z9lbslJiqBb-544" value="服务解析" style="text;html=1;strokeColor=none;fillColor=none;align=center;verticalAlign=middle;whiteSpace=wrap;rounded=0;fontSize=30;" vertex="1" parent="1">
          <mxGeometry x="1672" y="1950.81" width="129" height="20" as="geometry" />
        </mxCell>
        <mxCell id="ouk6PVNN6z9lbslJiqBb-545" value="" style="rounded=1;whiteSpace=wrap;html=1;strokeColor=#FFFFFF;fillColor=#9C9C9C;fontSize=80;fontColor=#388C8C;" vertex="1" parent="1">
          <mxGeometry x="1920" y="1910.06" width="170" height="101.5" as="geometry" />
        </mxCell>
        <mxCell id="ouk6PVNN6z9lbslJiqBb-546" value="接口分析" style="text;html=1;strokeColor=none;fillColor=none;align=center;verticalAlign=middle;whiteSpace=wrap;rounded=0;fontSize=30;" vertex="1" parent="1">
          <mxGeometry x="1940.5" y="1953.81" width="129" height="20" as="geometry" />
        </mxCell>
        <mxCell id="ouk6PVNN6z9lbslJiqBb-547" value="" style="rounded=1;whiteSpace=wrap;html=1;strokeColor=#FFFFFF;fillColor=#9C9C9C;fontSize=80;fontColor=#388C8C;" vertex="1" parent="1">
          <mxGeometry x="2146.5" y="1907.06" width="170" height="101.5" as="geometry" />
        </mxCell>
        <mxCell id="ouk6PVNN6z9lbslJiqBb-548" value="工具分析" style="text;html=1;strokeColor=none;fillColor=none;align=center;verticalAlign=middle;whiteSpace=wrap;rounded=0;fontSize=30;" vertex="1" parent="1">
          <mxGeometry x="2167" y="1950.81" width="129" height="20" as="geometry" />
        </mxCell>
        <mxCell id="ouk6PVNN6z9lbslJiqBb-549" value="" style="rounded=1;whiteSpace=wrap;html=1;strokeColor=#FFFFFF;fillColor=#9C9C9C;fontSize=80;fontColor=#388C8C;" vertex="1" parent="1">
          <mxGeometry x="2370" y="1910.06" width="170" height="101.5" as="geometry" />
        </mxCell>
        <mxCell id="ouk6PVNN6z9lbslJiqBb-550" value="消息分析" style="text;html=1;strokeColor=none;fillColor=none;align=center;verticalAlign=middle;whiteSpace=wrap;rounded=0;fontSize=30;" vertex="1" parent="1">
          <mxGeometry x="2390.5" y="1953.81" width="129" height="20" as="geometry" />
        </mxCell>
        <mxCell id="ouk6PVNN6z9lbslJiqBb-551" value="" style="rounded=1;whiteSpace=wrap;html=1;strokeColor=#FFFFFF;fillColor=#9C9C9C;fontSize=80;fontColor=#388C8C;" vertex="1" parent="1">
          <mxGeometry x="2586" y="1910.06" width="170" height="101.5" as="geometry" />
        </mxCell>
        <mxCell id="ouk6PVNN6z9lbslJiqBb-552" value="命令分析" style="text;html=1;strokeColor=none;fillColor=none;align=center;verticalAlign=middle;whiteSpace=wrap;rounded=0;fontSize=30;" vertex="1" parent="1">
          <mxGeometry x="2606.5" y="1953.81" width="129" height="20" as="geometry" />
        </mxCell>
        <mxCell id="ouk6PVNN6z9lbslJiqBb-553" value="" style="rounded=1;whiteSpace=wrap;html=1;strokeColor=#FFFFFF;fillColor=#9C9C9C;fontSize=80;fontColor=#388C8C;" vertex="1" parent="1">
          <mxGeometry x="2810" y="1910.06" width="170" height="101.5" as="geometry" />
        </mxCell>
        <mxCell id="ouk6PVNN6z9lbslJiqBb-554" value="事件分析" style="text;html=1;strokeColor=none;fillColor=none;align=center;verticalAlign=middle;whiteSpace=wrap;rounded=0;fontSize=30;" vertex="1" parent="1">
          <mxGeometry x="2830.5" y="1953.81" width="129" height="20" as="geometry" />
        </mxCell>
        <mxCell id="ouk6PVNN6z9lbslJiqBb-556" value="" style="whiteSpace=wrap;html=1;rounded=0;shadow=0;strokeWidth=8;fontSize=20;align=center;strokeColor=none;fillColor=#78C728;" vertex="1" parent="1">
          <mxGeometry x="1631" y="2117" width="1446" height="149" as="geometry" />
        </mxCell>
        <mxCell id="ouk6PVNN6z9lbslJiqBb-557" value="" style="rounded=1;whiteSpace=wrap;html=1;strokeColor=#FFFFFF;fontSize=80;fontColor=#388C8C;fillColor=#51C98D;" vertex="1" parent="1">
          <mxGeometry x="1651.5" y="2152.25" width="170" height="101.5" as="geometry" />
        </mxCell>
        <mxCell id="ouk6PVNN6z9lbslJiqBb-558" value="服务装载" style="text;html=1;strokeColor=none;fillColor=none;align=center;verticalAlign=middle;whiteSpace=wrap;rounded=0;fontSize=30;" vertex="1" parent="1">
          <mxGeometry x="1672" y="2196" width="129" height="20" as="geometry" />
        </mxCell>
        <mxCell id="ouk6PVNN6z9lbslJiqBb-559" value="" style="rounded=1;whiteSpace=wrap;html=1;strokeColor=#FFFFFF;fillColor=#9C9C9C;fontSize=80;fontColor=#388C8C;" vertex="1" parent="1">
          <mxGeometry x="1920" y="2155.25" width="170" height="101.5" as="geometry" />
        </mxCell>
        <mxCell id="ouk6PVNN6z9lbslJiqBb-560" value="图层装载" style="text;html=1;strokeColor=none;fillColor=none;align=center;verticalAlign=middle;whiteSpace=wrap;rounded=0;fontSize=30;" vertex="1" parent="1">
          <mxGeometry x="1940.5" y="2199" width="129" height="20" as="geometry" />
        </mxCell>
        <mxCell id="ouk6PVNN6z9lbslJiqBb-561" value="" style="rounded=1;whiteSpace=wrap;html=1;strokeColor=#FFFFFF;fillColor=#9C9C9C;fontSize=80;fontColor=#388C8C;" vertex="1" parent="1">
          <mxGeometry x="2146.5" y="2152.25" width="170" height="101.5" as="geometry" />
        </mxCell>
        <mxCell id="ouk6PVNN6z9lbslJiqBb-562" value="属性装载" style="text;html=1;strokeColor=none;fillColor=none;align=center;verticalAlign=middle;whiteSpace=wrap;rounded=0;fontSize=30;" vertex="1" parent="1">
          <mxGeometry x="2167" y="2196" width="129" height="20" as="geometry" />
        </mxCell>
        <mxCell id="ouk6PVNN6z9lbslJiqBb-563" value="" style="rounded=1;whiteSpace=wrap;html=1;strokeColor=#FFFFFF;fillColor=#9C9C9C;fontSize=80;fontColor=#388C8C;" vertex="1" parent="1">
          <mxGeometry x="2370" y="2155.25" width="170" height="101.5" as="geometry" />
        </mxCell>
        <mxCell id="ouk6PVNN6z9lbslJiqBb-564" value="场景装载" style="text;html=1;strokeColor=none;fillColor=none;align=center;verticalAlign=middle;whiteSpace=wrap;rounded=0;fontSize=30;" vertex="1" parent="1">
          <mxGeometry x="2390.5" y="2199" width="129" height="20" as="geometry" />
        </mxCell>
        <mxCell id="ouk6PVNN6z9lbslJiqBb-565" value="" style="rounded=1;whiteSpace=wrap;html=1;strokeColor=#FFFFFF;fillColor=#9C9C9C;fontSize=80;fontColor=#388C8C;" vertex="1" parent="1">
          <mxGeometry x="2586" y="2155.25" width="170" height="101.5" as="geometry" />
        </mxCell>
        <mxCell id="ouk6PVNN6z9lbslJiqBb-566" value="工具装载" style="text;html=1;strokeColor=none;fillColor=none;align=center;verticalAlign=middle;whiteSpace=wrap;rounded=0;fontSize=30;" vertex="1" parent="1">
          <mxGeometry x="2606.5" y="2199" width="129" height="20" as="geometry" />
        </mxCell>
        <mxCell id="ouk6PVNN6z9lbslJiqBb-567" value="" style="rounded=1;whiteSpace=wrap;html=1;strokeColor=#FFFFFF;fillColor=#9C9C9C;fontSize=80;fontColor=#388C8C;" vertex="1" parent="1">
          <mxGeometry x="2810" y="2155.25" width="170" height="101.5" as="geometry" />
        </mxCell>
        <mxCell id="ouk6PVNN6z9lbslJiqBb-568" value="视图装载" style="text;html=1;strokeColor=none;fillColor=none;align=center;verticalAlign=middle;whiteSpace=wrap;rounded=0;fontSize=30;" vertex="1" parent="1">
          <mxGeometry x="2830.5" y="2199" width="129" height="20" as="geometry" />
        </mxCell>
        <mxCell id="ouk6PVNN6z9lbslJiqBb-572" value="" style="whiteSpace=wrap;html=1;rounded=0;shadow=0;strokeWidth=8;fontSize=20;align=center;strokeColor=none;fillColor=#78C728;" vertex="1" parent="1">
          <mxGeometry x="1631" y="2367" width="1446" height="149" as="geometry" />
        </mxCell>
        <mxCell id="ouk6PVNN6z9lbslJiqBb-573" value="" style="rounded=1;whiteSpace=wrap;html=1;strokeColor=#FFFFFF;fontSize=80;fontColor=#388C8C;fillColor=#51C98D;" vertex="1" parent="1">
          <mxGeometry x="1651.5" y="2402.25" width="170" height="101.5" as="geometry" />
        </mxCell>
        <mxCell id="ouk6PVNN6z9lbslJiqBb-574" value="数据访问" style="text;html=1;strokeColor=none;fillColor=none;align=center;verticalAlign=middle;whiteSpace=wrap;rounded=0;fontSize=30;" vertex="1" parent="1">
          <mxGeometry x="1672" y="2446" width="129" height="20" as="geometry" />
        </mxCell>
        <mxCell id="ouk6PVNN6z9lbslJiqBb-575" value="" style="rounded=1;whiteSpace=wrap;html=1;strokeColor=#FFFFFF;fillColor=#9C9C9C;fontSize=80;fontColor=#388C8C;" vertex="1" parent="1">
          <mxGeometry x="1920" y="2405.25" width="170" height="101.5" as="geometry" />
        </mxCell>
        <mxCell id="ouk6PVNN6z9lbslJiqBb-576" value="数据监测" style="text;html=1;strokeColor=none;fillColor=none;align=center;verticalAlign=middle;whiteSpace=wrap;rounded=0;fontSize=30;" vertex="1" parent="1">
          <mxGeometry x="1940.5" y="2449" width="129" height="20" as="geometry" />
        </mxCell>
        <mxCell id="ouk6PVNN6z9lbslJiqBb-577" value="" style="rounded=1;whiteSpace=wrap;html=1;strokeColor=#FFFFFF;fillColor=#9C9C9C;fontSize=80;fontColor=#388C8C;" vertex="1" parent="1">
          <mxGeometry x="2146.5" y="2402.25" width="170" height="101.5" as="geometry" />
        </mxCell>
        <mxCell id="ouk6PVNN6z9lbslJiqBb-578" value="数据格式判断" style="text;html=1;strokeColor=none;fillColor=none;align=center;verticalAlign=middle;whiteSpace=wrap;rounded=0;fontSize=30;" vertex="1" parent="1">
          <mxGeometry x="2167" y="2446" width="129" height="20" as="geometry" />
        </mxCell>
        <mxCell id="ouk6PVNN6z9lbslJiqBb-579" value="" style="rounded=1;whiteSpace=wrap;html=1;strokeColor=#FFFFFF;fillColor=#9C9C9C;fontSize=80;fontColor=#388C8C;" vertex="1" parent="1">
          <mxGeometry x="2370" y="2405.25" width="170" height="101.5" as="geometry" />
        </mxCell>
        <mxCell id="ouk6PVNN6z9lbslJiqBb-580" value="数据读取组件" style="text;html=1;strokeColor=none;fillColor=none;align=center;verticalAlign=middle;whiteSpace=wrap;rounded=0;fontSize=30;" vertex="1" parent="1">
          <mxGeometry x="2390.5" y="2449" width="129" height="20" as="geometry" />
        </mxCell>
        <mxCell id="ouk6PVNN6z9lbslJiqBb-581" value="" style="rounded=1;whiteSpace=wrap;html=1;strokeColor=#FFFFFF;fillColor=#9C9C9C;fontSize=80;fontColor=#388C8C;" vertex="1" parent="1">
          <mxGeometry x="2586" y="2405.25" width="170" height="101.5" as="geometry" />
        </mxCell>
        <mxCell id="ouk6PVNN6z9lbslJiqBb-582" value="数据列表建立" style="text;html=1;strokeColor=none;fillColor=none;align=center;verticalAlign=middle;whiteSpace=wrap;rounded=0;fontSize=30;" vertex="1" parent="1">
          <mxGeometry x="2606.5" y="2449" width="129" height="20" as="geometry" />
        </mxCell>
        <mxCell id="ouk6PVNN6z9lbslJiqBb-583" value="" style="rounded=1;whiteSpace=wrap;html=1;strokeColor=#FFFFFF;fillColor=#9C9C9C;fontSize=80;fontColor=#388C8C;" vertex="1" parent="1">
          <mxGeometry x="2810" y="2405.25" width="170" height="101.5" as="geometry" />
        </mxCell>
        <mxCell id="ouk6PVNN6z9lbslJiqBb-584" value="数据分发" style="text;html=1;strokeColor=none;fillColor=none;align=center;verticalAlign=middle;whiteSpace=wrap;rounded=0;fontSize=30;" vertex="1" parent="1">
          <mxGeometry x="2830.5" y="2449" width="129" height="20" as="geometry" />
        </mxCell>
        <mxCell id="ouk6PVNN6z9lbslJiqBb-587" value="" style="whiteSpace=wrap;html=1;rounded=0;shadow=0;strokeWidth=1;fontSize=20;align=center;" vertex="1" parent="1">
          <mxGeometry x="1631" y="2597" width="1446" height="423" as="geometry" />
        </mxCell>
        <mxCell id="ouk6PVNN6z9lbslJiqBb-588" value="" style="endArrow=none;html=1;fontSize=80;fontColor=#388C8C;" edge="1" parent="1">
          <mxGeometry width="50" height="50" relative="1" as="geometry">
            <mxPoint x="1631" y="2512.67" as="sourcePoint" />
            <mxPoint x="1273" y="2512.67" as="targetPoint" />
          </mxGeometry>
        </mxCell>
        <mxCell id="ouk6PVNN6z9lbslJiqBb-589" value="数据层" style="text;html=1;strokeColor=none;fillColor=none;align=center;verticalAlign=middle;whiteSpace=wrap;rounded=0;fontSize=70;fontColor=#388C8C;" vertex="1" parent="1">
          <mxGeometry x="1100" y="2740" width="700" height="20" as="geometry" />
        </mxCell>
        <mxCell id="ouk6PVNN6z9lbslJiqBb-590" value="" style="shape=cylinder3;whiteSpace=wrap;html=1;boundedLbl=1;backgroundOutline=1;size=15;rounded=0;fontSize=60;fontColor=#388C8C;fillColor=#FF9999;strokeColor=#E6E6E6;" vertex="1" parent="1">
          <mxGeometry x="1852.5" y="2650.5" width="120" height="70.5" as="geometry" />
        </mxCell>
        <mxCell id="ouk6PVNN6z9lbslJiqBb-591" value="" style="rounded=1;whiteSpace=wrap;html=1;strokeColor=#FFFFFF;fontSize=80;fontColor=#388C8C;fillColor=#51C98D;" vertex="1" parent="1">
          <mxGeometry x="1640" y="2767.75" width="170" height="101.5" as="geometry" />
        </mxCell>
        <mxCell id="ouk6PVNN6z9lbslJiqBb-592" value="空间数据库" style="text;html=1;strokeColor=none;fillColor=none;align=center;verticalAlign=middle;whiteSpace=wrap;rounded=0;fontSize=30;" vertex="1" parent="1">
          <mxGeometry x="1645.25" y="2809.5" width="159.5" height="20" as="geometry" />
        </mxCell>
        <mxCell id="ouk6PVNN6z9lbslJiqBb-598" value="" style="shape=cylinder3;whiteSpace=wrap;html=1;boundedLbl=1;backgroundOutline=1;size=15;rounded=0;fontSize=60;fontColor=#388C8C;fillColor=#FF9999;strokeColor=#E6E6E6;" vertex="1" parent="1">
          <mxGeometry x="1852.5" y="2871" width="120" height="70.5" as="geometry" />
        </mxCell>
        <mxCell id="ouk6PVNN6z9lbslJiqBb-604" value="地形信息数据库" style="text;html=1;strokeColor=none;fillColor=none;align=center;verticalAlign=middle;whiteSpace=wrap;rounded=0;fontSize=30;" vertex="1" parent="1">
          <mxGeometry x="1845" y="2751.5" width="129" height="20" as="geometry" />
        </mxCell>
        <mxCell id="ouk6PVNN6z9lbslJiqBb-605" value="气象信息数据库" style="text;html=1;strokeColor=none;fillColor=none;align=center;verticalAlign=middle;whiteSpace=wrap;rounded=0;fontSize=30;" vertex="1" parent="1">
          <mxGeometry x="1847" y="2968.5" width="129" height="20" as="geometry" />
        </mxCell>
        <mxCell id="ouk6PVNN6z9lbslJiqBb-606" value="" style="shape=cylinder3;whiteSpace=wrap;html=1;boundedLbl=1;backgroundOutline=1;size=15;rounded=0;fontSize=60;fontColor=#388C8C;fillColor=#FF9999;strokeColor=#E6E6E6;" vertex="1" parent="1">
          <mxGeometry x="2067.5" y="2650.5" width="120" height="70.5" as="geometry" />
        </mxCell>
        <mxCell id="ouk6PVNN6z9lbslJiqBb-607" value="" style="shape=cylinder3;whiteSpace=wrap;html=1;boundedLbl=1;backgroundOutline=1;size=15;rounded=0;fontSize=60;fontColor=#388C8C;fillColor=#FF9999;strokeColor=#E6E6E6;" vertex="1" parent="1">
          <mxGeometry x="2067.5" y="2871" width="120" height="70.5" as="geometry" />
        </mxCell>
        <mxCell id="ouk6PVNN6z9lbslJiqBb-608" value="海洋信息数据库" style="text;html=1;strokeColor=none;fillColor=none;align=center;verticalAlign=middle;whiteSpace=wrap;rounded=0;fontSize=30;" vertex="1" parent="1">
          <mxGeometry x="2060" y="2751.5" width="129" height="20" as="geometry" />
        </mxCell>
        <mxCell id="ouk6PVNN6z9lbslJiqBb-609" value="图形信息数据库" style="text;html=1;strokeColor=none;fillColor=none;align=center;verticalAlign=middle;whiteSpace=wrap;rounded=0;fontSize=30;" vertex="1" parent="1">
          <mxGeometry x="2062" y="2968.5" width="129" height="20" as="geometry" />
        </mxCell>
        <mxCell id="ouk6PVNN6z9lbslJiqBb-630" value="" style="shape=cylinder3;whiteSpace=wrap;html=1;boundedLbl=1;backgroundOutline=1;size=15;rounded=0;fontSize=60;fontColor=#388C8C;fillColor=#FF9999;strokeColor=#E6E6E6;" vertex="1" parent="1">
          <mxGeometry x="2257.5" y="2650.5" width="120" height="70.5" as="geometry" />
        </mxCell>
        <mxCell id="ouk6PVNN6z9lbslJiqBb-631" value="" style="shape=cylinder3;whiteSpace=wrap;html=1;boundedLbl=1;backgroundOutline=1;size=15;rounded=0;fontSize=60;fontColor=#388C8C;fillColor=#FF9999;strokeColor=#E6E6E6;" vertex="1" parent="1">
          <mxGeometry x="2257.5" y="2871" width="120" height="70.5" as="geometry" />
        </mxCell>
        <mxCell id="ouk6PVNN6z9lbslJiqBb-632" value="天空信息数据库" style="text;html=1;strokeColor=none;fillColor=none;align=center;verticalAlign=middle;whiteSpace=wrap;rounded=0;fontSize=30;" vertex="1" parent="1">
          <mxGeometry x="2250" y="2751.5" width="129" height="20" as="geometry" />
        </mxCell>
        <mxCell id="ouk6PVNN6z9lbslJiqBb-633" value="渲染信息数据库" style="text;html=1;strokeColor=none;fillColor=none;align=center;verticalAlign=middle;whiteSpace=wrap;rounded=0;fontSize=30;" vertex="1" parent="1">
          <mxGeometry x="2252" y="2968.5" width="129" height="20" as="geometry" />
        </mxCell>
        <mxCell id="ouk6PVNN6z9lbslJiqBb-634" value="" style="shape=cylinder3;whiteSpace=wrap;html=1;boundedLbl=1;backgroundOutline=1;size=15;rounded=0;fontSize=60;fontColor=#388C8C;fillColor=#FF9999;strokeColor=#E6E6E6;" vertex="1" parent="1">
          <mxGeometry x="2472.5" y="2650.5" width="120" height="70.5" as="geometry" />
        </mxCell>
        <mxCell id="ouk6PVNN6z9lbslJiqBb-635" value="" style="shape=cylinder3;whiteSpace=wrap;html=1;boundedLbl=1;backgroundOutline=1;size=15;rounded=0;fontSize=60;fontColor=#388C8C;fillColor=#FF9999;strokeColor=#E6E6E6;" vertex="1" parent="1">
          <mxGeometry x="2472.5" y="2871" width="120" height="70.5" as="geometry" />
        </mxCell>
        <mxCell id="ouk6PVNN6z9lbslJiqBb-636" value="矢量信息数据库" style="text;html=1;strokeColor=none;fillColor=none;align=center;verticalAlign=middle;whiteSpace=wrap;rounded=0;fontSize=30;" vertex="1" parent="1">
          <mxGeometry x="2465" y="2751.5" width="129" height="20" as="geometry" />
        </mxCell>
        <mxCell id="ouk6PVNN6z9lbslJiqBb-637" value="军标信息数据库" style="text;html=1;strokeColor=none;fillColor=none;align=center;verticalAlign=middle;whiteSpace=wrap;rounded=0;fontSize=30;" vertex="1" parent="1">
          <mxGeometry x="2467" y="2968.5" width="129" height="20" as="geometry" />
        </mxCell>
        <mxCell id="ouk6PVNN6z9lbslJiqBb-638" value="" style="shape=cylinder3;whiteSpace=wrap;html=1;boundedLbl=1;backgroundOutline=1;size=15;rounded=0;fontSize=60;fontColor=#388C8C;fillColor=#FF9999;strokeColor=#E6E6E6;" vertex="1" parent="1">
          <mxGeometry x="2671" y="2649.5" width="120" height="70.5" as="geometry" />
        </mxCell>
        <mxCell id="ouk6PVNN6z9lbslJiqBb-639" value="" style="shape=cylinder3;whiteSpace=wrap;html=1;boundedLbl=1;backgroundOutline=1;size=15;rounded=0;fontSize=60;fontColor=#388C8C;fillColor=#FF9999;strokeColor=#E6E6E6;" vertex="1" parent="1">
          <mxGeometry x="2671" y="2870" width="120" height="70.5" as="geometry" />
        </mxCell>
        <mxCell id="ouk6PVNN6z9lbslJiqBb-640" value="标量信息数据库" style="text;html=1;strokeColor=none;fillColor=none;align=center;verticalAlign=middle;whiteSpace=wrap;rounded=0;fontSize=30;" vertex="1" parent="1">
          <mxGeometry x="2663.5" y="2750.5" width="129" height="20" as="geometry" />
        </mxCell>
        <mxCell id="ouk6PVNN6z9lbslJiqBb-641" value="基础信息数据库" style="text;html=1;strokeColor=none;fillColor=none;align=center;verticalAlign=middle;whiteSpace=wrap;rounded=0;fontSize=30;" vertex="1" parent="1">
          <mxGeometry x="2665.5" y="2967.5" width="129" height="20" as="geometry" />
        </mxCell>
        <mxCell id="ouk6PVNN6z9lbslJiqBb-642" value="" style="shape=cylinder3;whiteSpace=wrap;html=1;boundedLbl=1;backgroundOutline=1;size=15;rounded=0;fontSize=60;fontColor=#388C8C;fillColor=#FF9999;strokeColor=#E6E6E6;" vertex="1" parent="1">
          <mxGeometry x="2886" y="2649.5" width="120" height="70.5" as="geometry" />
        </mxCell>
        <mxCell id="ouk6PVNN6z9lbslJiqBb-643" value="" style="shape=cylinder3;whiteSpace=wrap;html=1;boundedLbl=1;backgroundOutline=1;size=15;rounded=0;fontSize=60;fontColor=#388C8C;fillColor=#FF9999;strokeColor=#E6E6E6;" vertex="1" parent="1">
          <mxGeometry x="2886" y="2870" width="120" height="70.5" as="geometry" />
        </mxCell>
        <mxCell id="ouk6PVNN6z9lbslJiqBb-644" value="模型信息数据库" style="text;html=1;strokeColor=none;fillColor=none;align=center;verticalAlign=middle;whiteSpace=wrap;rounded=0;fontSize=30;" vertex="1" parent="1">
          <mxGeometry x="2878.5" y="2750.5" width="129" height="20" as="geometry" />
        </mxCell>
        <mxCell id="ouk6PVNN6z9lbslJiqBb-645" value="其他信息数据库" style="text;html=1;strokeColor=none;fillColor=none;align=center;verticalAlign=middle;whiteSpace=wrap;rounded=0;fontSize=30;" vertex="1" parent="1">
          <mxGeometry x="2880.5" y="2967.5" width="129" height="20" as="geometry" />
        </mxCell>
        <mxCell id="ouk6PVNN6z9lbslJiqBb-650" value="" style="shape=flexArrow;endArrow=classic;startArrow=classic;html=1;fontSize=60;fontColor=#000000;startWidth=26.666666666666668;startSize=8.966666666666667;endWidth=26.666666666666668;endSize=8.966666666666667;width=33.333333333333336;" edge="1" parent="1">
          <mxGeometry width="50" height="50" relative="1" as="geometry">
            <mxPoint x="2351" y="1393" as="sourcePoint" />
            <mxPoint x="2351" y="1283" as="targetPoint" />
          </mxGeometry>
        </mxCell>
        <mxCell id="ouk6PVNN6z9lbslJiqBb-652" value="" style="shape=flexArrow;endArrow=classic;startArrow=classic;html=1;fontSize=60;fontColor=#000000;startWidth=26.666666666666668;startSize=8.966666666666667;endWidth=26.666666666666668;endSize=8.966666666666667;width=33.333333333333336;" edge="1" parent="1">
          <mxGeometry width="50" height="50" relative="1" as="geometry">
            <mxPoint x="2351" y="1153" as="sourcePoint" />
            <mxPoint x="2351" y="1043" as="targetPoint" />
          </mxGeometry>
        </mxCell>
        <mxCell id="ouk6PVNN6z9lbslJiqBb-659" value="" style="shape=flexArrow;endArrow=classic;startArrow=classic;html=1;fontSize=60;fontColor=#000000;startWidth=26.666666666666668;startSize=8.966666666666667;endWidth=26.666666666666668;endSize=8.966666666666667;width=33.333333333333336;" edge="1" parent="1">
          <mxGeometry width="50" height="50" relative="1" as="geometry">
            <mxPoint x="2350" y="1630.75" as="sourcePoint" />
            <mxPoint x="2350" y="1520.75" as="targetPoint" />
          </mxGeometry>
        </mxCell>
        <mxCell id="ouk6PVNN6z9lbslJiqBb-661" value="" style="shape=flexArrow;endArrow=classic;startArrow=classic;html=1;fontSize=60;fontColor=#000000;startWidth=26.666666666666668;startSize=8.966666666666667;endWidth=26.666666666666668;endSize=8.966666666666667;width=33.333333333333336;" edge="1" parent="1">
          <mxGeometry width="50" height="50" relative="1" as="geometry">
            <mxPoint x="2351" y="1871.81" as="sourcePoint" />
            <mxPoint x="2351" y="1761.81" as="targetPoint" />
          </mxGeometry>
        </mxCell>
        <mxCell id="ouk6PVNN6z9lbslJiqBb-663" value="" style="shape=flexArrow;endArrow=classic;startArrow=classic;html=1;fontSize=60;fontColor=#000000;startWidth=26.666666666666668;startSize=8.966666666666667;endWidth=26.666666666666668;endSize=8.966666666666667;width=33.333333333333336;" edge="1" parent="1">
          <mxGeometry width="50" height="50" relative="1" as="geometry">
            <mxPoint x="2351" y="2123" as="sourcePoint" />
            <mxPoint x="2351" y="2013" as="targetPoint" />
          </mxGeometry>
        </mxCell>
        <mxCell id="ouk6PVNN6z9lbslJiqBb-665" value="" style="shape=flexArrow;endArrow=classic;startArrow=classic;html=1;fontSize=60;fontColor=#000000;startWidth=26.666666666666668;startSize=8.966666666666667;endWidth=26.666666666666668;endSize=8.966666666666667;width=33.333333333333336;" edge="1" parent="1">
          <mxGeometry width="50" height="50" relative="1" as="geometry">
            <mxPoint x="2351" y="2367" as="sourcePoint" />
            <mxPoint x="2351" y="2257" as="targetPoint" />
          </mxGeometry>
        </mxCell>
        <mxCell id="ouk6PVNN6z9lbslJiqBb-667" value="" style="shape=flexArrow;endArrow=classic;startArrow=classic;html=1;fontSize=60;fontColor=#000000;startWidth=26.666666666666668;startSize=8.966666666666667;endWidth=26.666666666666668;endSize=8.966666666666667;width=33.333333333333336;" edge="1" parent="1">
          <mxGeometry width="50" height="50" relative="1" as="geometry">
            <mxPoint x="2351" y="2610" as="sourcePoint" />
            <mxPoint x="2351" y="2500" as="targetPoint" />
          </mxGeometry>
        </mxCell>
      </root>
    </mxGraphModel>
  </diagram>
</mxfile>
